<svg xmlns="http://www.w3.org/2000/svg" width="44.774" height="44.322" viewBox="0 0 44.774 44.322">
  <g id="Group_1" data-name="Group 1" transform="translate(-1619.489 -704.67)">
    <path id="Path_67" data-name="Path 67" d="M1663.179,747.915a3.7,3.7,0,0,1-5.216,0l-9.489-9.489a18.1,18.1,0,0,0,5.162-5.279l9.543,9.543A3.691,3.691,0,0,1,1663.179,747.915Z" fill="#eb5534"/>
    <path id="Path_68" data-name="Path 68" d="M1636.376,704.67a16.887,16.887,0,1,0,9.2,31.053,17.141,17.141,0,0,0,5.162-5.279,16.894,16.894,0,0,0-14.364-25.774Zm0,29.4a12.51,12.51,0,1,1,12.511-12.51A12.51,12.51,0,0,1,1636.378,734.069Z" fill="#eb5534"/>
  </g>
</svg>
